<svg xmlns="http://www.w3.org/2000/svg" xmlns:xlink="http://www.w3.org/1999/xlink" width="500" zoomAndPan="magnify" viewBox="0 0 375 374.999991" height="500" preserveAspectRatio="xMidYMid meet" version="1.0"><defs><clipPath id="b646e13037"><path d="M 44.921875 21.589844 L 330.078125 21.589844 L 330.078125 353.53125 L 44.921875 353.53125 Z M 44.921875 21.589844 " clip-rule="nonzero"/></clipPath><clipPath id="ee203278e1"><path d="M 187.5 21.589844 L 330.078125 104.542969 L 330.078125 270.457031 L 187.5 353.410156 L 44.921875 270.457031 L 44.921875 104.542969 Z M 187.5 21.589844 " clip-rule="nonzero"/></clipPath><clipPath id="abde4c87a0"><path d="M 44.921875 21.589844 L 329.921875 21.589844 L 329.921875 353.089844 L 44.921875 353.089844 Z M 44.921875 21.589844 " clip-rule="nonzero"/></clipPath><clipPath id="4b0a02676b"><path d="M 187.496094 21.589844 L 330.074219 104.542969 L 330.074219 270.449219 L 187.496094 353.402344 L 44.921875 270.449219 L 44.921875 104.542969 Z M 187.496094 21.589844 " clip-rule="nonzero"/></clipPath><clipPath id="30360d5d0d"><path d="M 187 187 L 282.171875 187 L 282.171875 282.425781 L 187 282.425781 Z M 187 187 " clip-rule="nonzero"/></clipPath></defs><g clip-path="url(#b646e13037)"><g clip-path="url(#ee203278e1)"><path fill="#ffffff" d="M 44.921875 21.589844 L 330.078125 21.589844 L 330.078125 353.53125 L 44.921875 353.53125 Z M 44.921875 21.589844 " fill-opacity="1" fill-rule="nonzero"/></g></g><g clip-path="url(#abde4c87a0)"><g clip-path="url(#4b0a02676b)"><path stroke-linecap="butt" transform="matrix(0.75, 0, 0, 0.75, 44.920084, 21.590206)" fill="none" stroke-linejoin="miter" d="M 190.101359 -0.000483136 L 380.205538 110.603691 L 380.205538 331.812039 L 190.101359 442.416213 L 0.00238807 331.812039 L 0.00238807 110.603691 Z M 190.101359 -0.000483136 " stroke="#ef4323" stroke-width="38" stroke-opacity="1" stroke-miterlimit="4"/></g></g><g clip-path="url(#30360d5d0d)"><path fill="#ef4323" d="M 243.867188 251.605469 C 248.773438 251.460938 252.851562 255.316406 252.996094 260.207031 C 253.007812 260.300781 253.007812 260.378906 253.007812 260.472656 C 253.007812 265.378906 249.023438 269.351562 244.128906 269.351562 C 239.222656 269.351562 235.25 265.378906 235.25 260.472656 C 235.25 255.667969 239.078125 251.734375 243.867188 251.605469 Z M 209.359375 235.503906 C 214.253906 235.359375 218.34375 239.210938 218.488281 244.121094 C 218.488281 244.199219 218.488281 244.289062 218.488281 244.382812 C 218.488281 249.289062 214.515625 253.261719 209.609375 253.261719 C 204.714844 253.261719 200.742188 249.289062 200.742188 244.382812 C 200.742188 239.582031 204.558594 235.648438 209.359375 235.503906 Z M 234.65625 226.292969 C 239.550781 226.148438 243.640625 230.003906 243.785156 234.910156 C 243.785156 234.988281 243.785156 235.082031 243.785156 235.160156 C 243.785156 240.066406 239.8125 244.039062 234.917969 244.039062 C 230.011719 244.039062 226.039062 240.066406 226.039062 235.160156 C 226.039062 230.371094 229.867188 226.4375 234.65625 226.292969 Z M 259.96875 217.085938 C 264.859375 216.953125 268.953125 220.808594 269.085938 225.703125 C 269.085938 225.78125 269.085938 225.871094 269.085938 225.953125 C 269.175781 230.859375 265.257812 234.898438 260.363281 234.976562 C 255.46875 235.054688 251.417969 231.136719 251.335938 226.242188 C 251.335938 226.148438 251.335938 226.042969 251.335938 225.953125 C 251.351562 221.148438 255.164062 217.230469 259.96875 217.085938 Z M 225.449219 200.996094 C 230.34375 200.851562 234.433594 204.707031 234.578125 209.613281 C 234.578125 209.691406 234.578125 209.785156 234.578125 209.863281 C 234.65625 214.769531 230.75 218.808594 225.855469 218.886719 C 220.949219 218.953125 216.910156 215.046875 216.832031 210.152344 C 216.832031 210.058594 216.832031 209.957031 216.832031 209.863281 C 216.832031 205.0625 220.644531 201.128906 225.449219 200.996094 Z M 220.59375 187.921875 C 217.699219 187.816406 215.042969 189.445312 213.820312 192.0625 L 188.335938 246.710938 C 186.652344 250.316406 188.207031 254.589844 191.808594 256.273438 L 246.457031 281.757812 C 250.0625 283.425781 254.335938 281.875 256.007812 278.269531 L 281.488281 223.625 C 283.171875 220.019531 281.621094 215.742188 278.03125 214.058594 L 223.371094 188.578125 C 222.5 188.171875 221.554688 187.945312 220.59375 187.921875 " fill-opacity="1" fill-rule="nonzero"/></g><path fill="#ef4323" d="M 169.460938 230.398438 C 174.351562 230.265625 178.445312 234.121094 178.574219 239.015625 C 178.574219 239.105469 178.574219 239.1875 178.574219 239.265625 C 178.667969 244.171875 174.746094 248.210938 169.855469 248.289062 C 164.945312 248.367188 160.910156 244.449219 160.84375 239.554688 C 160.828125 239.460938 160.828125 239.371094 160.84375 239.265625 C 160.84375 234.476562 164.65625 230.542969 169.460938 230.398438 Z M 155.460938 194.917969 C 160.367188 194.828125 164.40625 198.734375 164.488281 203.640625 C 164.488281 203.71875 164.488281 203.8125 164.488281 203.890625 C 164.566406 208.796875 160.660156 212.824219 155.75 212.902344 C 150.859375 212.980469 146.820312 209.074219 146.738281 204.179688 C 146.738281 204.074219 146.738281 203.984375 146.738281 203.890625 C 146.6875 199.011719 150.582031 194.996094 155.460938 194.917969 Z M 190.730469 180.933594 C 195.625 180.789062 199.714844 184.644531 199.859375 189.539062 C 199.859375 189.628906 199.859375 189.710938 199.859375 189.800781 C 199.859375 194.695312 195.902344 198.667969 190.996094 198.667969 C 186.085938 198.667969 182.113281 194.695312 182.113281 189.800781 C 182.113281 185 185.929688 181.066406 190.730469 180.933594 Z M 197.136719 168.175781 C 196.242188 168.1875 195.363281 168.359375 194.546875 168.6875 L 138.53125 191 C 134.835938 192.472656 133.03125 196.65625 134.503906 200.339844 C 134.503906 200.339844 134.503906 200.351562 134.503906 200.351562 L 156.816406 256.367188 C 158.289062 260.050781 162.472656 261.851562 166.15625 260.378906 L 180.679688 254.589844 L 210.78125 190.039062 L 203.886719 172.710938 C 202.78125 169.949219 200.109375 168.148438 197.136719 168.175781 " fill-opacity="1" fill-rule="nonzero"/><path fill="#ef4323" d="M 149.753906 138.746094 L 150.851562 134.859375 C 151.511719 136.769531 152.390625 138.578125 153.480469 140.28125 C 161.40625 153.027344 180.269531 158.878906 194.238281 152.835938 C 196.636719 151.828125 198.84375 150.5 200.855469 148.851562 L 199.761719 152.757812 C 192.175781 177.832031 143.113281 163.871094 149.753906 138.746094 Z M 149.753906 138.746094 " fill-opacity="1" fill-rule="nonzero"/><path fill="#ef4323" d="M 192.683594 149.148438 C 180.933594 154.277344 164.890625 149.585938 157.667969 139.34375 C 157.1875 138.738281 156.75 138.109375 156.351562 137.453125 C 155.953125 136.792969 155.59375 136.113281 155.28125 135.414062 C 154.964844 134.710938 154.695312 133.992188 154.46875 133.257812 C 154.242188 132.523438 154.0625 131.777344 153.925781 131.019531 C 153.792969 130.261719 153.707031 129.496094 153.667969 128.730469 C 153.628906 127.960938 153.636719 127.195312 153.691406 126.425781 C 153.746094 125.660156 153.847656 124.898438 154 124.144531 C 154.148438 123.390625 154.34375 122.644531 154.585938 121.917969 C 154.828125 121.1875 155.113281 120.472656 155.445312 119.777344 C 155.773438 119.082031 156.144531 118.410156 156.558594 117.761719 C 156.972656 117.113281 157.421875 116.492188 157.914062 115.898438 C 158.402344 115.304688 158.925781 114.746094 159.484375 114.21875 C 160.046875 113.6875 160.636719 113.195312 161.253906 112.742188 C 161.875 112.285156 162.523438 111.871094 163.191406 111.496094 C 163.863281 111.121094 164.558594 110.789062 165.269531 110.5 C 165.980469 110.210938 166.710938 109.964844 167.453125 109.765625 C 163.277344 115.566406 158.015625 124.503906 163.644531 131.011719 C 164.492188 131.980469 165.402344 132.882812 166.378906 133.71875 C 167.355469 134.554688 168.386719 135.316406 169.476562 136 C 170.5625 136.6875 171.691406 137.292969 172.867188 137.8125 C 174.042969 138.335938 175.246094 138.773438 176.484375 139.121094 C 177.722656 139.46875 178.980469 139.722656 180.253906 139.890625 C 181.527344 140.054688 182.808594 140.128906 184.09375 140.109375 C 185.378906 140.089844 186.65625 139.976562 187.925781 139.769531 C 189.195312 139.566406 190.441406 139.269531 191.667969 138.882812 C 197.335938 137.214844 199.207031 131.222656 199.519531 125.910156 C 199.734375 123.4375 199.707031 120.964844 199.441406 118.496094 C 208.730469 128.605469 205.640625 144.097656 192.683594 149.148438 Z M 192.683594 149.148438 " fill-opacity="1" fill-rule="nonzero"/><path fill="#ef4323" d="M 182.160156 102.53125 C 183.132812 103.097656 184.152344 103.554688 185.21875 103.910156 C 186.285156 104.265625 187.375 104.507812 188.492188 104.636719 C 189.609375 104.765625 190.726562 104.777344 191.847656 104.675781 C 192.964844 104.570312 194.0625 104.355469 195.136719 104.027344 C 192.601562 109.425781 195.441406 114.570312 195.59375 120.167969 C 195.964844 123.980469 195.558594 127.707031 194.378906 131.351562 C 192.871094 135.585938 187.535156 135.980469 183.695312 136.113281 C 182.082031 136.113281 180.488281 135.945312 178.914062 135.605469 C 177.335938 135.265625 175.8125 134.761719 174.34375 134.097656 C 172.875 133.433594 171.492188 132.621094 170.195312 131.660156 C 168.898438 130.699219 167.71875 129.613281 166.65625 128.402344 C 162.867188 123.628906 167.203125 117.503906 169.921875 113.152344 C 171.523438 110.859375 173.3125 108.71875 175.285156 106.734375 C 177.128906 104.792969 178.273438 102.5 178.714844 99.859375 C 179.738281 100.914062 180.886719 101.804688 182.160156 102.53125 Z M 182.160156 102.53125 " fill-opacity="1" fill-rule="nonzero"/><path fill="#ef4323" d="M 197.628906 98.425781 C 197.269531 98.679688 196.894531 98.914062 196.511719 99.128906 C 196.125 99.34375 195.730469 99.539062 195.328125 99.714844 C 194.921875 99.886719 194.507812 100.039062 194.085938 100.167969 C 193.664062 100.296875 193.238281 100.40625 192.804688 100.492188 C 192.371094 100.574219 191.9375 100.636719 191.496094 100.675781 C 191.058594 100.714844 190.617188 100.726562 190.175781 100.71875 C 189.734375 100.710938 189.296875 100.679688 188.859375 100.625 C 188.421875 100.570312 187.988281 100.492188 187.558594 100.394531 C 187.128906 100.292969 186.707031 100.171875 186.292969 100.023438 C 185.875 99.878906 185.46875 99.710938 185.070312 99.523438 C 184.671875 99.335938 184.28125 99.125 183.90625 98.898438 C 183.53125 98.667969 183.167969 98.417969 182.816406 98.152344 C 182.464844 97.882812 182.128906 97.597656 181.8125 97.292969 C 181.492188 96.992188 181.1875 96.671875 180.902344 96.335938 C 180.617188 96 180.347656 95.652344 180.097656 95.289062 C 179.851562 94.921875 179.621094 94.546875 179.410156 94.160156 C 178.851562 93.085938 178.457031 91.949219 178.226562 90.761719 C 178 89.570312 177.945312 88.371094 178.0625 87.164062 C 178.183594 85.957031 178.472656 84.792969 178.929688 83.671875 C 179.390625 82.550781 180 81.515625 180.757812 80.570312 C 181.519531 79.628906 182.398438 78.808594 183.394531 78.121094 C 184.394531 77.433594 185.46875 76.902344 186.621094 76.523438 C 187.773438 76.148438 188.957031 75.945312 190.167969 75.914062 C 191.378906 75.882812 192.570312 76.027344 193.742188 76.34375 C 203.636719 78.835938 206.070312 92.742188 197.628906 98.425781 Z M 197.628906 98.425781 " fill-opacity="1" fill-rule="nonzero"/><path fill="#ef4323" d="M 99.816406 160.050781 C 100.539062 165.171875 102.925781 170.808594 108.488281 172.007812 C 109.738281 172.308594 111 172.519531 112.28125 172.636719 C 113.5625 172.757812 114.84375 172.785156 116.125 172.714844 C 117.410156 172.648438 118.683594 172.492188 119.941406 172.238281 C 121.203125 171.988281 122.441406 171.648438 123.652344 171.214844 C 124.863281 170.785156 126.035156 170.269531 127.171875 169.671875 C 128.308594 169.070312 129.398438 168.390625 130.433594 167.632812 C 131.472656 166.875 132.453125 166.046875 133.371094 165.144531 C 134.289062 164.246094 135.136719 163.285156 135.914062 162.261719 C 139.578125 157.628906 137.644531 151.652344 134.835938 147.132812 C 133.585938 144.988281 132.136719 142.988281 130.492188 141.125 C 132.113281 141.449219 133.664062 141.972656 135.152344 142.6875 C 136.636719 143.40625 138.011719 144.296875 139.277344 145.359375 C 140.539062 146.421875 141.652344 147.625 142.613281 148.96875 C 143.570312 150.308594 144.351562 151.75 144.949219 153.289062 C 149.382812 165.171875 139.058594 178.195312 127.5625 181.832031 C 115.949219 186.277344 100.285156 182.703125 96.042969 170.699219 C 95.542969 169.160156 95.238281 167.585938 95.132812 165.972656 C 95.023438 164.359375 95.113281 162.757812 95.398438 161.167969 C 95.6875 159.574219 96.160156 158.042969 96.828125 156.570312 C 97.492188 155.097656 98.328125 153.726562 99.332031 152.460938 C 99.25 155.003906 99.410156 157.535156 99.816406 160.050781 Z M 99.816406 160.050781 " fill-opacity="1" fill-rule="nonzero"/><path fill="#ef4323" d="M 107.121094 186.027344 C 116.699219 189.449219 128.972656 187.296875 137.503906 181.152344 C 140.316406 179.230469 142.726562 176.894531 144.730469 174.136719 C 146.734375 171.378906 148.214844 168.367188 149.167969 165.097656 L 150.527344 168.917969 C 150.9375 170.027344 151.222656 171.164062 151.386719 172.335938 C 151.550781 173.503906 151.585938 174.679688 151.5 175.855469 C 151.410156 177.03125 151.199219 178.1875 150.867188 179.320312 C 150.53125 180.453125 150.082031 181.535156 149.511719 182.570312 C 142.507812 195.175781 124.0625 201.535156 111.023438 196.28125 C 109.929688 195.835938 108.894531 195.28125 107.917969 194.617188 C 106.941406 193.953125 106.046875 193.191406 105.234375 192.332031 C 104.421875 191.476562 103.710938 190.542969 103.097656 189.53125 C 102.488281 188.519531 101.988281 187.457031 101.605469 186.339844 L 100.257812 182.535156 C 102.371094 184.042969 104.65625 185.210938 107.121094 186.027344 Z M 107.121094 186.027344 " fill-opacity="1" fill-rule="nonzero"/><path fill="#ef4323" d="M 132.742188 159.84375 C 132.078125 160.710938 131.355469 161.523438 130.574219 162.285156 C 129.792969 163.046875 128.960938 163.75 128.078125 164.394531 C 127.195312 165.035156 126.269531 165.613281 125.304688 166.121094 C 124.339844 166.632812 123.34375 167.070312 122.316406 167.433594 C 121.285156 167.800781 120.238281 168.09375 119.167969 168.308594 C 118.097656 168.523438 117.015625 168.660156 115.925781 168.71875 C 114.835938 168.777344 113.75 168.757812 112.660156 168.660156 C 111.574219 168.5625 110.5 168.390625 109.4375 168.136719 C 103.589844 166.425781 103.59375 158.921875 103.304688 153.800781 C 103.289062 151.003906 103.511719 148.222656 103.980469 145.464844 C 104.363281 142.8125 103.976562 140.28125 102.8125 137.871094 C 104.28125 138.136719 105.757812 138.203125 107.246094 138.0625 C 108.734375 137.921875 110.175781 137.585938 111.570312 137.046875 C 112.964844 136.511719 114.261719 135.796875 115.460938 134.90625 C 116.65625 134.015625 117.714844 132.976562 118.625 131.792969 C 119.671875 137.667969 124.960938 140.226562 128.320312 144.710938 C 131.355469 148.894531 136.195312 154.765625 132.742188 159.84375 Z M 132.742188 159.84375 " fill-opacity="1" fill-rule="nonzero"/><path fill="#ef4323" d="M 94.449219 116.371094 C 94.769531 115.699219 95.144531 115.0625 95.578125 114.457031 C 96.011719 113.851562 96.496094 113.292969 97.03125 112.773438 C 97.566406 112.253906 98.144531 111.789062 98.761719 111.375 C 99.378906 110.960938 100.03125 110.605469 100.710938 110.308594 C 101.394531 110.011719 102.097656 109.777344 102.820312 109.605469 C 103.546875 109.433594 104.277344 109.328125 105.023438 109.289062 C 105.765625 109.246094 106.507812 109.273438 107.246094 109.367188 C 107.984375 109.460938 108.707031 109.621094 109.417969 109.84375 C 110.125 110.066406 110.8125 110.351562 111.46875 110.695312 C 112.128906 111.042969 112.75 111.445312 113.339844 111.902344 C 113.925781 112.359375 114.464844 112.867188 114.960938 113.421875 C 115.457031 113.976562 115.902344 114.570312 116.289062 115.207031 C 116.679688 115.839844 117.007812 116.503906 117.277344 117.195312 C 117.546875 117.890625 117.753906 118.601562 117.898438 119.332031 C 118.039062 120.0625 118.117188 120.800781 118.125 121.546875 C 118.136719 122.289062 118.078125 123.027344 117.957031 123.761719 C 117.832031 124.496094 117.644531 125.214844 117.394531 125.914062 C 117.144531 126.613281 116.832031 127.285156 116.457031 127.929688 C 116.085938 128.574219 115.660156 129.183594 115.179688 129.75 C 114.699219 130.316406 114.171875 130.839844 113.597656 131.3125 C 113.023438 131.785156 112.410156 132.203125 111.761719 132.566406 C 111.109375 132.929688 110.433594 133.234375 109.730469 133.476562 C 109.027344 133.714844 108.308594 133.894531 107.570312 134.007812 C 106.835938 134.121094 106.097656 134.164062 105.351562 134.144531 C 104.835938 134.128906 104.328125 134.082031 103.816406 134 C 103.308594 133.921875 102.808594 133.808594 102.3125 133.667969 C 101.820312 133.523438 101.335938 133.351562 100.859375 133.152344 C 100.386719 132.949219 99.929688 132.71875 99.484375 132.460938 C 99.039062 132.203125 98.613281 131.917969 98.203125 131.605469 C 97.792969 131.292969 97.402344 130.957031 97.035156 130.597656 C 96.667969 130.238281 96.320312 129.859375 96 129.457031 C 95.679688 129.054688 95.382812 128.632812 95.117188 128.195312 C 94.847656 127.753906 94.605469 127.300781 94.390625 126.832031 C 94.179688 126.363281 93.996094 125.886719 93.84375 125.394531 C 93.6875 124.902344 93.566406 124.402344 93.472656 123.898438 C 93.382812 123.390625 93.320312 122.882812 93.292969 122.367188 C 93.261719 121.855469 93.265625 121.339844 93.300781 120.828125 C 93.335938 120.3125 93.402344 119.804688 93.5 119.296875 C 93.597656 118.792969 93.722656 118.296875 93.882812 117.804688 C 94.042969 117.316406 94.230469 116.839844 94.449219 116.371094 Z M 94.449219 116.371094 " fill-opacity="1" fill-rule="nonzero"/></svg>